<svg xmlns="http://www.w3.org/2000/svg" width="368.504" height="57.81" viewBox="0 0 368.504 57.81"><g transform="translate(-28.248 -29.595)"><path d="M48.167,86.47V72.458a1.23,1.23,0,0,0-2.166-.8l-4.113,4.822-4.112-4.822a1.23,1.23,0,0,0-2.166.8V86.47H28.248V48.28L40.952,63.2a1.229,1.229,0,0,0,1.873,0l12.62-14.838V86.47Z" fill="#595857"/><path d="M60.238,86.387,74.961,48.172,89.63,86.387h-7.9l-.84-2.281a1.231,1.231,0,0,0-1.154-.805h-9.6a1.231,1.231,0,0,0-1.154.805l-.84,2.281ZM74.952,70.638a1.231,1.231,0,0,0-1.148.789l-1.882,4.9A1.231,1.231,0,0,0,73.071,78h3.736a1.23,1.23,0,0,0,1.15-1.666l-1.854-4.9a1.232,1.232,0,0,0-1.148-.795Z" fill="#595857"/><path d="M102.757,71.632a1.23,1.23,0,0,0-2.164.8V86.377H93.231V48.271l13.533,15.818a1.23,1.23,0,0,0,2.165-.8V49.3h7.361V87.4Z" fill="#595857"/><path d="M139.7,87.144a19.3,19.3,0,1,1,0-38.593,19.609,19.609,0,0,1,13.64,5.629l-5.2,5.2a11.971,11.971,0,1,0-.6,17.532,1.23,1.23,0,0,0-.8-2.16H139.7V67.875h19.27A19.292,19.292,0,0,1,139.7,87.144Z" fill="#595857"/><path d="M158.808,86.387l14.723-38.215L188.2,86.387h-7.9l-.84-2.281A1.231,1.231,0,0,0,178.3,83.3h-9.6a1.231,1.231,0,0,0-1.154.805l-.84,2.281Zm14.714-15.749a1.231,1.231,0,0,0-1.148.789l-1.882,4.9A1.231,1.231,0,0,0,171.641,78h3.735a1.23,1.23,0,0,0,1.151-1.666l-1.854-4.9a1.232,1.232,0,0,0-1.148-.795Z" fill="#595857"/><path d="M239.832,86.387V57.9a1.23,1.23,0,0,0-1.23-1.23h-4.941V49.309h19.757V56.67h-4.995a1.23,1.23,0,0,0-1.23,1.23V86.387Z" fill="#595857"/><path d="M274.637,87.144a19.3,19.3,0,1,1,19.269-19.269A19.319,19.319,0,0,1,274.637,87.144Zm0-31.123a11.854,11.854,0,1,0,11.854,11.854A11.894,11.894,0,0,0,274.637,56.021Z" fill="#595857"/><path d="M317.507,86.387l-6.571-10.952a1.231,1.231,0,0,0-1.055-.6h0a1.23,1.23,0,0,0-1.055.6l-2.241,3.781a1.237,1.237,0,0,0-.172.627v6.538h-7.361V49.309h7.361V60.728a1.23,1.23,0,0,0,.906,1.187,1.211,1.211,0,0,0,.325.044,1.229,1.229,0,0,0,1.058-.6l7.13-12.046h8.606l-9.852,16.472a1.23,1.23,0,0,0,0,1.264l11.584,19.342Z" fill="#595857"/><path d="M339.159,86.387V70.6a1.23,1.23,0,0,0-.177-.636L326.493,49.309h8.66l6.629,11.016a1.228,1.228,0,0,0,1.054.6h0a1.231,1.231,0,0,0,1.054-.6l6.58-11.013h8.66L346.644,69.963a1.231,1.231,0,0,0-.178.636V86.387Z" fill="#595857"/><path d="M377.482,87.144a19.3,19.3,0,1,1,19.27-19.269A19.318,19.318,0,0,1,377.482,87.144Zm0-31.123a11.854,11.854,0,1,0,11.854,11.854A11.894,11.894,0,0,0,377.482,56.021Z" fill="#595857"/><circle cx="11.687" cy="11.687" r="11.687" transform="translate(197.919 63.012)" fill="#d9333f"/><path d="M200.071,49.41l3.488,3.479a8.866,8.866,0,0,1,12.056-.033l3.469-3.5a13.8,13.8,0,0,0-19.013.053Z" fill="#595857"/><path d="M188.751,38.122l3.483,3.473a24.849,24.849,0,0,1,34.641-.1l3.462-3.493a29.762,29.762,0,0,0-41.586.117Z" fill="#595857"/><path d="M194.411,43.766l3.483,3.473a16.871,16.871,0,0,1,23.355-.065l3.462-3.493a21.78,21.78,0,0,0-30.3.085Z" fill="#595857"/></g></svg>